<svg width="100" height="19" viewBox="0 0 100 19" fill="none" xmlns="http://www.w3.org/2000/svg">
<path d="M37.9495 18.3993V5.58611H40.618C40.7546 5.87369 40.8609 6.1747 40.9351 6.48427C41.1465 7.11841 41.2528 7.83178 41.2542 8.62439V8.80944C41.5182 7.69964 42.0288 6.83219 42.7861 6.20709C43.5433 5.58199 44.4504 5.26931 45.5073 5.26904C47.7088 5.26904 48.8977 6.50196 49.074 8.96778C49.3734 7.78804 49.9282 6.87659 50.7383 6.23341C51.5485 5.59023 52.4908 5.26878 53.5652 5.26904C54.7617 5.26904 55.704 5.64766 56.3921 6.40491C57.0803 7.16215 57.4238 8.28937 57.4227 9.78657V18.4013H54.0674V9.94611C54.0674 9.18913 53.9308 8.64752 53.6578 8.32128C53.3847 7.99504 52.9135 7.83205 52.2443 7.83231C51.3461 7.83231 50.6461 8.14938 50.1441 8.78352C49.6421 9.41766 49.3823 10.316 49.3648 11.4784V18.3993H46.0094V9.94411C46.0094 9.18713 45.8729 8.64553 45.5998 8.31928C45.3267 7.99304 44.8556 7.83005 44.1864 7.83032C43.3057 7.83032 42.6101 8.14739 42.0993 8.78153C41.5885 9.41566 41.3244 10.314 41.3068 11.4764V18.3993H37.9495Z" fill="white"/>
<path d="M65.4613 18.69C63.6472 18.69 62.1238 18.1131 60.8912 16.9594C59.6585 15.8058 59.0416 14.1017 59.0402 11.8473V11.7946C59.0402 9.78639 59.6346 8.1968 60.8234 7.02584C62.0121 5.85488 63.5576 5.26993 65.4597 5.271C67.3621 5.271 68.9121 5.85222 70.1096 7.01467C71.3072 8.17712 71.9054 9.76233 71.9043 11.7703V11.8229C71.9043 14.0952 71.2879 15.808 70.055 16.9614C68.8221 18.1149 67.2909 18.691 65.4613 18.69ZM65.4613 16.4964C67.4866 16.4964 68.4993 15.0698 68.4996 12.2166V11.2662C68.4996 10.0697 68.2266 9.14508 67.6808 8.49233C67.1349 7.83958 66.3951 7.51374 65.4613 7.5148C64.5275 7.5148 63.7922 7.84065 63.2554 8.49233C62.7186 9.14402 62.45 10.0686 62.4498 11.2662V12.2174C62.4485 15.0706 63.4523 16.4972 65.4613 16.4972V16.4964Z" fill="white"/>
<path d="M73.5975 18.3993V5.58611H76.2696C76.4069 5.87361 76.5138 6.17462 76.5887 6.48427C76.8001 7.11841 76.9058 7.83178 76.9058 8.62439V8.88841C77.1522 7.76185 77.6718 6.87685 78.4644 6.23341C79.257 5.58997 80.2345 5.26851 81.397 5.26904C82.6998 5.26904 83.7126 5.64766 84.4352 6.40491C85.1579 7.16215 85.519 8.28937 85.5184 9.78657V18.4013H82.1894V9.94611C82.1894 8.53691 81.4762 7.83231 80.0497 7.83231C79.1335 7.83231 78.389 8.15377 77.8163 8.79668C77.2436 9.43959 76.9573 10.3335 76.9576 11.4784V18.3993H73.5975Z" fill="white"/>
<path d="M93.5538 18.69C91.7397 18.69 90.2161 18.1131 88.9832 16.9595C87.7503 15.8058 87.1339 14.1017 87.1339 11.8473V11.7946C87.1339 9.7864 87.7282 8.1968 88.917 7.02584C90.1058 5.85488 91.6514 5.26993 93.5538 5.271C95.4557 5.271 97.0055 5.85222 98.2033 7.01468C99.4011 8.17713 100 9.76167 100 11.7683V11.821C100 14.0932 99.3836 15.8061 98.1507 16.9595C96.9178 18.1129 95.3855 18.6897 93.5538 18.69ZM93.5538 16.4964C95.579 16.4964 96.5918 15.0698 96.5921 12.2166V11.2662C96.5921 10.0697 96.319 9.14509 95.7729 8.49234C95.2267 7.83959 94.4871 7.51374 93.5538 7.51481C92.6197 7.51481 91.8844 7.84065 91.3479 8.49234C90.8113 9.14402 90.5426 10.0686 90.5418 11.2662V12.2174C90.5418 15.0706 91.5458 16.4972 93.5538 16.4972V16.4964Z" fill="white"/>
<path d="M11.5143 18.0676C11.5145 18.1823 11.4829 18.2948 11.4231 18.3926C11.3633 18.4904 11.2775 18.5698 11.1753 18.6219C11.0731 18.674 10.9585 18.6967 10.8442 18.6877C10.7299 18.6786 10.6203 18.638 10.5276 18.5705L0.554478 11.2556C0.475572 11.198 0.41132 11.1226 0.36691 11.0356C0.3225 10.9486 0.299179 10.8523 0.298829 10.7546V1.41807C0.298631 1.30338 0.330199 1.19088 0.390033 1.09303C0.449867 0.995187 0.535628 0.915824 0.63781 0.863742C0.739991 0.81166 0.8546 0.788894 0.96893 0.797967C1.08326 0.80704 1.19284 0.847598 1.28553 0.915145L11.2586 8.23006C11.3377 8.28778 11.4021 8.36333 11.4465 8.45057C11.4909 8.53781 11.5141 8.63429 11.5143 8.73218V18.0676Z" fill="white"/>
<path d="M22.1942 18.0674C22.1945 18.1821 22.163 18.2946 22.1033 18.3925C22.0435 18.4904 21.9577 18.5698 21.8556 18.6219C21.7534 18.674 21.6388 18.6967 21.5245 18.6876C21.4102 18.6785 21.3006 18.638 21.2079 18.5704L11.2348 11.2555C11.1559 11.1978 11.0917 11.1225 11.0473 11.0355C11.0029 10.9485 10.9795 10.8522 10.9792 10.7545V1.41795C10.979 1.30326 11.0106 1.19075 11.0704 1.09291C11.1302 0.995065 11.216 0.915702 11.3182 0.86362C11.4204 0.811538 11.535 0.788772 11.6493 0.797845C11.7636 0.806918 11.8732 0.847476 11.9659 0.915023L21.939 8.22994C22.0178 8.28763 22.0819 8.36301 22.1263 8.45002C22.1706 8.53702 22.1939 8.63322 22.1942 8.73087V18.0674Z" fill="white"/>
<path d="M32.8772 18.0674C32.8775 18.1821 32.846 18.2946 32.7862 18.3925C32.7264 18.4904 32.6407 18.5698 32.5385 18.6219C32.4363 18.674 32.3217 18.6967 32.2074 18.6876C32.0931 18.6785 31.9835 18.638 31.8909 18.5704L21.9162 11.2555C21.8373 11.1978 21.773 11.1225 21.7286 11.0355C21.6842 10.9485 21.6609 10.8522 21.6605 10.7545V1.41795C21.6603 1.30326 21.6919 1.19075 21.7517 1.09291C21.8116 0.995065 21.8973 0.915702 21.9995 0.86362C22.1017 0.811538 22.2163 0.788772 22.3306 0.797845C22.445 0.806918 22.5545 0.847476 22.6472 0.915023L32.6203 8.22994C32.6996 8.28758 32.7641 8.36308 32.8087 8.45031C32.8534 8.53755 32.8768 8.63408 32.8772 8.73206V18.0674Z" fill="white"/>
</svg>
